<svg id="Camada_2" data-name="Camada 2" xmlns="http://www.w3.org/2000/svg" viewBox="0 0 212.88 134.66">
  <defs>
    <style>
      .cls-1 {
        fill: #fc7200;
      }
    </style>
  </defs>
  <g id="Layer_1" data-name="Layer 1">
    <g>
      <path class="cls-1" d="M31.72,47.87c-6.89,0-12.47,5.58-12.47,12.47v.47s-.33,6.56,5.08,8.05l-7.97,11.67h8.83l8.05-11.47h10.56l-1.79,11.47h8.05l5.35-32.66h-23.69ZM44.83,62.02h-15.01c-1.46,0-2.52-1.37-2.17-2.78l.63-2.53c.25-1,1.14-1.7,2.17-1.7h15.32l-.94,7.01Z"></path>
      <path class="cls-1" d="M57.9,47.87l-3.74,23.82c-.73,4.64,2.86,8.84,7.56,8.84h14.95c5.48,0,10.11-4.07,10.81-9.51l2.96-23.15h-7.75l-3.53,23.49c-.2,1.36-1.37,2.37-2.75,2.37h-11.9c-1.4,0-2.47-1.25-2.25-2.64l3.72-23.22h-8.07Z"></path>
      <path class="cls-1" d="M89.7,71.43v1.83c0,4.01,3.25,7.27,7.27,7.27h15.11c6.26,0,11.34-5.08,11.34-11.34v-2.27c0-3.86-3.13-6.99-6.99-6.99h-14.31c-1.5,0-2.53-1.52-1.97-2.92l.17-.43c.38-.94,1.3-1.56,2.31-1.56h12.85c1.14,0,2.06.92,2.06,2.06v.2h7.94v-2.14c0-4.01-3.25-7.27-7.27-7.27h-14.98c-6.26,0-11.34,5.08-11.34,11.34v.38c0,3.86,3.13,6.99,6.99,6.99h14.78c1.35,0,2.36,1.25,2.07,2.57l-.58,2.66c-.25,1.15-1.27,1.96-2.44,1.96h-12.93c-1.14,0-2.06-.92-2.06-2.06v-.34l-8.03.04Z"></path>
      <path class="cls-1" d="M125.45,71.43v1.83c0,4.01,3.25,7.27,7.27,7.27h15.11c6.26,0,11.34-5.08,11.34-11.34v-2.27c0-3.86-3.13-6.99-6.99-6.99h-14.31c-1.5,0-2.53-1.52-1.97-2.92l.17-.43c.38-.94,1.3-1.56,2.31-1.56h12.85c1.14,0,2.06.92,2.06,2.06v.2h7.94v-2.14c0-4.01-3.25-7.27-7.27-7.27h-14.98c-6.26,0-11.34,5.08-11.34,11.34v.38c0,3.86,3.13,6.99,6.99,6.99h14.78c1.35,0,2.36,1.25,2.07,2.57l-.58,2.66c-.25,1.15-1.27,1.96-2.44,1.96h-12.93c-1.14,0-2.06-.92-2.06-2.06v-.34l-8.03.04Z"></path>
      <path class="cls-1" d="M188.9,47.87h-14.28c-5.71,0-10.55,4.21-11.34,9.87l-2.01,14.45c-.61,4.4,2.81,8.33,7.25,8.33h14.74c5.59,0,10.33-4.1,11.14-9.63l2.08-14.27c.67-4.62-2.91-8.76-7.58-8.76ZM188.29,57.48l-1.87,13.36c-.24,1.71-1.71,2.99-3.44,2.99h-10.87c-1.63,0-2.88-1.46-2.61-3.08l2.18-13.33c.24-1.47,1.51-2.55,3-2.55h11.34c1.39,0,2.46,1.23,2.27,2.6Z"></path>
      <path class="cls-1" d="M58.78,42.01c30.11-1.03,60.63-1.03,90.75,0-30.11,1.03-60.63,1.03-90.75,0h0Z"></path>
      <polygon class="cls-1" points="104.63 38.87 105.4 12.97 106.16 38.9 104.63 38.9 104.63 38.87"></polygon>
      <path class="cls-1" d="M106.44,134.66L0,99.19v-63.72l.34-.11L106.44,0l106.44,35.47v63.72l-.34.11-106.1,35.36ZM1,98.47l105.44,35.14,105.44-35.14v-62.28L106.44,1.06,1,36.19v62.28Z"></path>
      <g>
        <path class="cls-1" d="M39.89,90.39c0,.55-.15,1.01-.46,1.39-.3.38-.77.66-1.41.85v.02l2.34,3.23h-1.73l-2.14-3.04h-.99v3.04h-1.44v-7.85h2.39c.39,0,.76.02,1.1.07.34.05.63.11.87.2.46.18.82.44,1.07.78.25.35.38.78.38,1.31ZM36.23,91.64c.33,0,.61-.01.84-.04s.42-.07.58-.13c.29-.11.49-.26.6-.45.11-.19.17-.41.17-.65,0-.21-.04-.4-.13-.56-.09-.16-.24-.29-.45-.38-.14-.06-.31-.11-.52-.14-.21-.03-.46-.04-.77-.04h-1.03v2.41h.71Z"></path>
        <path class="cls-1" d="M43.39,94.68h3.86v1.2h-5.3v-7.85h5.09v1.2h-3.65v2.03h3.13v1.2h-3.13v2.21Z"></path>
        <path class="cls-1" d="M51.27,92.84c-.13,0-.26,0-.38,0s-.24-.01-.35-.02v3.07h-1.44v-7.85h2.27c.38,0,.71.02.99.05.28.03.54.08.76.15.54.16.95.43,1.24.79.29.36.43.82.43,1.37,0,.38-.08.72-.23,1.02s-.39.56-.69.77-.67.37-1.1.49c-.43.11-.93.17-1.5.17ZM50.54,91.61c.08.01.19.02.31.03s.26,0,.4,0c.39,0,.71-.03.97-.09.26-.06.47-.15.63-.26s.28-.25.35-.41c.07-.16.11-.33.11-.52,0-.23-.05-.43-.16-.6s-.29-.3-.55-.39c-.14-.05-.31-.08-.51-.1s-.45-.03-.74-.03h-.81v2.37Z"></path>
        <path class="cls-1" d="M60.2,93.88h-2.96l-.77,2h-1.53l3.12-7.85h1.31l3.12,7.85h-1.52l-.77-2ZM58.71,89.92c-.27.82-.52,1.51-.73,2.06l-.27.7h2.03l-.27-.7c-.21-.56-.46-1.24-.73-2.06h-.02Z"></path>
        <path class="cls-1" d="M69.74,90.39c0,.55-.15,1.01-.46,1.39-.3.38-.77.66-1.41.85v.02l2.34,3.23h-1.73l-2.14-3.04h-.99v3.04h-1.44v-7.85h2.39c.39,0,.76.02,1.1.07.34.05.63.11.87.2.46.18.82.44,1.07.78.25.35.38.78.38,1.31ZM66.08,91.64c.33,0,.61-.01.84-.04s.42-.07.58-.13c.29-.11.49-.26.6-.45.11-.19.17-.41.17-.65,0-.21-.04-.4-.13-.56-.09-.16-.24-.29-.45-.38-.14-.06-.31-.11-.52-.14-.21-.03-.46-.04-.77-.04h-1.03v2.41h.71Z"></path>
        <path class="cls-1" d="M79.1,91.96c0,.6-.09,1.15-.25,1.65-.17.5-.42.93-.75,1.29-.33.36-.73.64-1.2.84-.48.2-1.02.3-1.62.3s-1.15-.1-1.62-.3c-.48-.2-.88-.48-1.2-.84-.33-.36-.58-.79-.75-1.29-.17-.5-.25-1.05-.25-1.65s.09-1.15.25-1.65c.17-.5.42-.93.75-1.29.33-.36.73-.64,1.2-.84.48-.2,1.02-.3,1.62-.3s1.15.1,1.62.3c.48.2.88.48,1.2.84.33.36.58.79.75,1.29.17.5.25,1.05.25,1.65ZM77.62,91.96c0-.48-.06-.89-.18-1.25-.12-.36-.28-.66-.49-.89-.21-.24-.45-.42-.74-.53-.29-.12-.6-.18-.94-.18s-.65.06-.94.18c-.29.12-.53.3-.74.53-.21.24-.37.54-.49.89-.12.36-.18.78-.18,1.25s.06.89.18,1.25.28.66.49.89.45.41.74.53c.29.12.6.18.94.18s.65-.06.94-.18c.29-.12.53-.3.74-.53.21-.24.37-.53.49-.89s.18-.78.18-1.25Z"></path>
        <path class="cls-1" d="M84.82,93.63c0-.2-.05-.36-.15-.48-.1-.12-.23-.22-.4-.3s-.36-.14-.57-.19c-.21-.05-.43-.1-.66-.14-.3-.07-.6-.15-.87-.24-.28-.09-.52-.22-.73-.38-.21-.16-.38-.37-.5-.62s-.19-.56-.19-.94c0-.41.07-.78.22-1.08.14-.31.34-.56.59-.76s.54-.35.87-.45c.33-.1.71-.15,1.13-.15s.84.04,1.26.12c.42.08.79.19,1.09.32v1.23c-.41-.16-.8-.28-1.17-.35-.37-.07-.73-.11-1.05-.11-.47,0-.84.09-1.09.26s-.38.43-.38.77c0,.2.04.36.13.49s.2.24.34.32c.14.08.31.15.5.2.19.05.39.1.6.14.33.07.65.15.95.24.3.09.57.22.81.38s.42.38.56.64c.14.26.21.6.21,1.01s-.08.79-.23,1.1c-.16.31-.38.56-.67.77-.29.2-.64.35-1.05.45s-.86.15-1.35.15c-.43,0-.85-.04-1.26-.13-.41-.08-.76-.2-1.03-.36v-1.21c.39.17.76.29,1.13.37.37.08.75.11,1.14.11.23,0,.45-.02.67-.06s.42-.1.59-.19c.17-.09.31-.21.42-.37s.16-.35.16-.57Z"></path>
        <path class="cls-1" d="M94.98,93.88h-2.96l-.77,2h-1.53l3.12-7.85h1.31l3.12,7.85h-1.52l-.77-2ZM93.49,89.92c-.27.82-.52,1.51-.73,2.06l-.27.7h2.03l-.27-.7c-.21-.56-.46-1.24-.73-2.06h-.02Z"></path>
        <path class="cls-1" d="M101.96,96.03c-.41,0-.78-.04-1.11-.12s-.62-.2-.87-.35c-.25-.15-.46-.33-.64-.55-.18-.22-.32-.46-.42-.74-.09-.22-.15-.46-.18-.73-.04-.27-.06-.56-.06-.89v-4.62h1.44v4.5c0,.56.07.99.2,1.3.15.35.37.6.65.75.29.15.62.23,1.01.23s.72-.08,1.01-.23c.29-.15.5-.41.65-.75.13-.31.2-.75.2-1.3v-4.5h1.44v4.62c0,.33-.02.63-.06.89-.04.27-.1.51-.18.73-.11.27-.25.52-.43.74s-.4.4-.65.55c-.26.15-.55.27-.88.35-.33.08-.7.12-1.11.12Z"></path>
        <path class="cls-1" d="M110.66,95.88h-1.44v-6.65h-2.54v-1.2h6.5v1.2h-2.53v6.65Z"></path>
        <path class="cls-1" d="M121.64,91.96c0,.6-.09,1.15-.26,1.65-.17.5-.42.93-.75,1.29-.33.36-.73.64-1.2.84-.48.2-1.02.3-1.62.3s-1.15-.1-1.62-.3c-.48-.2-.88-.48-1.2-.84-.33-.36-.57-.79-.75-1.29-.17-.5-.26-1.05-.26-1.65s.09-1.15.26-1.65c.17-.5.42-.93.75-1.29.33-.36.73-.64,1.2-.84.48-.2,1.02-.3,1.62-.3s1.15.1,1.62.3c.48.2.88.48,1.2.84.33.36.58.79.75,1.29.17.5.26,1.05.26,1.65ZM120.15,91.96c0-.48-.06-.89-.18-1.25-.12-.36-.28-.66-.49-.89-.21-.24-.45-.42-.74-.53s-.6-.18-.94-.18-.65.06-.94.18-.53.3-.74.53c-.21.24-.37.54-.49.89-.12.36-.18.78-.18,1.25s.06.89.18,1.25c.12.36.28.66.49.89s.45.41.74.53c.29.12.6.18.94.18s.65-.06.94-.18c.29-.12.53-.3.74-.53s.37-.53.49-.89.18-.78.18-1.25Z"></path>
        <path class="cls-1" d="M127.53,93.78c.17-.62.39-1.28.64-1.99l1.36-3.76h2.02v7.85h-1.44v-3.98c0-.58.02-1.26.07-2.03h-.05c-.07.22-.14.47-.23.75s-.18.55-.28.82l-1.63,4.44h-.93l-1.63-4.44c-.1-.27-.19-.54-.28-.82s-.17-.53-.23-.75h-.05c.05.72.07,1.4.07,2.02v3.99h-1.44v-7.85h2.01l1.36,3.74c.23.62.44,1.29.64,2.01h.04Z"></path>
        <path class="cls-1" d="M141.05,91.96c0,.6-.09,1.15-.26,1.65-.17.5-.42.93-.75,1.29-.33.36-.73.64-1.2.84-.48.2-1.02.3-1.62.3s-1.15-.1-1.62-.3c-.48-.2-.88-.48-1.2-.84-.33-.36-.57-.79-.75-1.29-.17-.5-.26-1.05-.26-1.65s.09-1.15.26-1.65c.17-.5.42-.93.75-1.29.33-.36.73-.64,1.2-.84.48-.2,1.02-.3,1.62-.3s1.15.1,1.62.3c.48.2.88.48,1.2.84.33.36.58.79.75,1.29.17.5.26,1.05.26,1.65ZM139.56,91.96c0-.48-.06-.89-.18-1.25-.12-.36-.28-.66-.49-.89-.21-.24-.45-.42-.74-.53s-.6-.18-.94-.18-.65.06-.94.18-.53.3-.74.53c-.21.24-.37.54-.49.89-.12.36-.18.78-.18,1.25s.06.89.18,1.25c.12.36.28.66.49.89s.45.41.74.53c.29.12.6.18.94.18s.65-.06.94-.18c.29-.12.53-.3.74-.53s.37-.53.49-.89.18-.78.18-1.25Z"></path>
        <path class="cls-1" d="M145.81,95.88h-1.44v-6.65h-2.54v-1.2h6.5v1.2h-2.53v6.65Z"></path>
        <path class="cls-1" d="M149.78,95.88v-7.85h1.44v7.85h-1.44Z"></path>
        <path class="cls-1" d="M156.33,93.96c.14-.43.25-.73.31-.91.06-.18.2-.55.41-1.12l1.46-3.9h1.52l-3.07,7.85h-1.29l-3.07-7.85h1.53l1.46,3.9c.21.56.34.94.41,1.12s.17.49.31.91h.02Z"></path>
        <path class="cls-1" d="M168.59,91.96c0,.6-.09,1.15-.26,1.65-.17.5-.42.93-.75,1.29-.33.36-.73.64-1.2.84-.48.2-1.02.3-1.62.3s-1.15-.1-1.62-.3c-.48-.2-.88-.48-1.2-.84-.33-.36-.57-.79-.75-1.29-.17-.5-.26-1.05-.26-1.65s.09-1.15.26-1.65c.17-.5.42-.93.75-1.29.33-.36.73-.64,1.2-.84.48-.2,1.02-.3,1.62-.3s1.15.1,1.62.3c.48.2.88.48,1.2.84.33.36.58.79.75,1.29.17.5.26,1.05.26,1.65ZM167.11,91.96c0-.48-.06-.89-.18-1.25-.12-.36-.28-.66-.49-.89-.21-.24-.45-.42-.74-.53s-.6-.18-.94-.18-.65.06-.94.18-.53.3-.74.53c-.21.24-.37.54-.49.89-.12.36-.18.78-.18,1.25s.06.89.18,1.25c.12.36.28.66.49.89s.45.41.74.53c.29.12.6.18.94.18s.65-.06.94-.18c.29-.12.53-.3.74-.53s.37-.53.49-.89.18-.78.18-1.25Z"></path>
        <path class="cls-1" d="M174.31,93.63c0-.2-.05-.36-.15-.48s-.23-.22-.4-.3-.36-.14-.57-.19-.43-.1-.66-.14c-.31-.07-.6-.15-.87-.24-.28-.09-.52-.22-.73-.38-.21-.16-.38-.37-.5-.62s-.19-.56-.19-.94c0-.41.07-.78.22-1.08.14-.31.34-.56.59-.76s.54-.35.87-.45c.33-.1.71-.15,1.13-.15s.84.04,1.26.12c.42.08.79.19,1.09.32v1.23c-.41-.16-.8-.28-1.17-.35-.37-.07-.72-.11-1.05-.11-.47,0-.84.09-1.09.26s-.38.43-.38.77c0,.2.04.36.13.49s.2.24.34.32c.14.08.31.15.5.2.19.05.39.1.6.14.33.07.65.15.95.24.3.09.57.22.81.38s.42.38.56.64c.14.26.21.6.21,1.01s-.08.79-.23,1.1c-.16.31-.38.56-.67.77-.29.2-.64.35-1.05.45-.41.1-.86.15-1.35.15-.43,0-.85-.04-1.26-.13-.41-.08-.76-.2-1.03-.36v-1.21c.39.17.76.29,1.13.37.37.08.75.11,1.14.11.23,0,.45-.02.67-.06s.42-.1.59-.19c.17-.09.31-.21.42-.37s.16-.35.16-.57Z"></path>
      </g>
      <g>
        <g>
          <polygon class="cls-1" points="99.44 38.9 97.16 18.37 101 38.9 99.44 38.9 99.44 38.9"></polygon>
          <polygon class="cls-1" points="94.7 38.9 90.48 21.24 96.31 38.9 94.7 38.9 94.7 38.9"></polygon>
          <polygon class="cls-1" points="89.9 38.9 83.92 24.66 91.64 38.9 89.9 38.9 89.9 38.9"></polygon>
          <polygon class="cls-1" points="84.32 38.9 77.02 27.09 86.24 38.9 84.32 38.9 84.32 38.9"></polygon>
          <polygon class="cls-1" points="77.5 38.9 71.61 31.06 79.66 38.9 77.5 38.9 77.5 38.9"></polygon>
          <polygon class="cls-1" points="69.57 38.9 65.99 34.7 71.99 38.9 69.57 38.9 69.57 38.9"></polygon>
        </g>
        <g>
          <polygon class="cls-1" points="111.35 38.9 113.64 18.37 109.79 38.9 111.35 38.9 111.35 38.9"></polygon>
          <polygon class="cls-1" points="116.1 38.9 120.31 21.24 114.48 38.9 116.1 38.9 116.1 38.9"></polygon>
          <polygon class="cls-1" points="120.89 38.9 126.88 24.66 119.15 38.9 120.89 38.9 120.89 38.9"></polygon>
          <polygon class="cls-1" points="126.47 38.9 133.77 27.09 124.55 38.9 126.47 38.9 126.47 38.9"></polygon>
          <polygon class="cls-1" points="133.29 38.9 139.18 31.06 131.13 38.9 133.29 38.9 133.29 38.9"></polygon>
          <polygon class="cls-1" points="141.22 38.9 144.8 34.7 138.8 38.9 141.22 38.9 141.22 38.9"></polygon>
        </g>
      </g>
    </g>
  </g>
</svg>